<svg viewBox="0 0 4000 4000" xmlns="http://www.w3.org/2000/svg" xmlns:xlink="http://www.w3.org/1999/xlink"><linearGradient id="a" gradientUnits="userSpaceOnUse" x1="116.648" x2="2615.751" y1="2156.871" y2="2320.63"><stop offset="0" stop-color="#41d1ff"/><stop offset="1" stop-color="#bd34fe"/></linearGradient><linearGradient id="b" x1="129.454" x2="2628.557" xlink:href="#a" y1="1961.444" y2="2125.203"/><linearGradient id="c" gradientUnits="userSpaceOnUse" x1="2051.063" x2="2382.338" y1="409.333" y2="2681.839"><stop offset="0" stop-color="#ffea83"/><stop offset=".083" stop-color="#ffdd35"/><stop offset="1" stop-color="#ffa800"/></linearGradient><linearGradient id="d" x1="116.457" x2="2615.559" xlink:href="#a" y1="2159.796" y2="2323.555"/><linearGradient id="e" x1="134.946" x2="2634.048" xlink:href="#a" y1="1877.637" y2="2041.396"/><path d="m3132.691 2628.913c-.137-2.507-.349-4.995-.526-7.493-.41-5.794-.92-11.564-1.551-17.306-.313-2.838-.647-5.67-1.013-8.492-.736-5.671-1.611-11.299-2.569-16.901-.429-2.507-.812-5.032-1.286-7.522-1.514-7.958-3.194-15.858-5.171-23.633h.002l-.002-.003c-40.123-157.832-162.455-228.724-225.051-255.362-1.064 13.963-2.414 27.788-4.307 41.32-6.466 46.205-17.689 89.752-33.189 129.673-77.269 158.534-213.102 158.534-213.102 158.534 98.646-47.559 167.891-165.476 185.356-309.552 2.54-20.944 3.994-42.435 4.276-64.349 1.424-110.788-27.042-216.45-80.164-297.53-6.259-9.553-12.794-18.62-19.563-27.238l-62.297 66.51-131.356 140.24c24.285 36.711 46.004 101.748 10.337 202.508-22.623 52.535-54.207 97.737-89.003 127.894-54.616 47.335-122.036 71.622-189.217 71.622-26.825 0-53.579-4.013-79.5-11.836 7.609 75.066.005 146.266-21.805 209.695 28.167 94.226 88.051 160.455 170.019 187.23 73.26 23.926 156.01 12.351 205.931-28.819 0 0-60.015 141.578-225.501 88.744-83.149-27.159-147.708-85.801-187.383-168.244-11.645 19.092-24.867 37.091-39.665 53.812-142.051 117.076-267.819 53.007-267.819 53.007 81.242-1.17 159.497-37.623 214.704-100.006 40.294-45.534 84.809-122.995 83.635-242.255l-220.823 235.757-300.895 321.246c48.567 48.513 111.54 87.843 179.477 108.383 80.506 24.348 236.567 42.156 377.263-111.947 0 0 0 171.006-271.423 198.943-41.64 0-83.992-6.303-126.367-19.108-78.966-23.876-151.236-68.533-207.57-124.364l-6.381 6.813c-28.345 30.263-68.394 47.621-109.879 47.621-29.599 0-58.302-8.638-83.008-24.98-61.421-40.625-84.398-119.004-54.633-186.365l412.089-932.621c-36.697-4.501-75.844-5.364-117.451-2.024-280.683 22.454-437.833 233.574-474.185 365.063 12.618 3.76 25.444 8.213 38.423 13.521 171.872 85.144 171.872 243.415 171.872 243.415-82.615-129.689-193.741-200.002-321.364-203.341-143.039-3.717-277.687 78.432-336.953 161.536 0 0-2.603-130.912 177.606-207.577 49.976-16.795 104.419-26.325 161.203-24.857 12.542.329 25.784 1.311 39.479 2.943 17.494-68.267 58.765-146.717 122.446-217.461 13.563-58.596-3.334-100.857-51.653-128.931l-1.774-1.035.331-.56c-61.394-37.949-118.407-90.652-159.994-154.341-127.136-94.765-294.755-34.814-315.355-12.033 0 0 0-81.828 108.494-100.368 44.258-4.817 101.457-3.785 160.028 16.8-.653-1.917-1.381-3.8-2.005-5.73-34.396-106.317-21.509-223.315 35.357-320.994 63.395-111.511 187.508-111.511 187.508-111.511s-65.011 43.915-126.217 147.191c-46.738 80.283-57.371 176.319-29.167 263.481 31.03 95.913 101.307 170.262 177.073 217.007l.008-.013 1.342.785c1.698.986 3.241 2.069 4.891 3.084 67.044 39.869 137.584 58.016 188.632 50.349 68.671-35.287 148.205-59.909 238.317-67.119 9.732-.781 19.387-1.322 28.985-1.693-3.449-25.565-4.379-54.334-2.278-84.57l-246.503-14.673c-50.065-2.98-95.176-30.545-120.671-73.737-25.497-43.194-27.83-96.008-6.246-141.281l306.703-643.327c24.421-53.744 70.789-132.843 33.409-138.183-49.886-7.127-207.703 68.199-264.328 98.789-88.934 48.044-108.267 141.052-188.064 135.611-285.859-19.484-459.476 128.901-517.327 299.022 16.045-3.277 31.03-5.246 45.102-6.246 121.876-8.666 171.132 59.631 171.132 59.631-64.093-16.22-140.395-6.102-191.373 5.537-27.107 6.187-47.015 12.786-54.12 16.105l-2.078 1.025c-152.37 75.119-241.985 188.777-266.352 337.824-20.273 123.991 11.646 237.844 33.87 285.998 1.551 2.754 13.118 22.244 35.441 46.622 60.064 65.592 198.029 166.547 428.555 71.958 0 0-55.014 92.204-178.465 101.453-37.954 0-72.194-4.966-102.655-12.871-36.33-9.427-67.285-23.034-92.749-37.377-36.555-20.589-66.287-45.014-89.39-68.102-10.849-10.843-20.273-21.388-28.169-31.097-59.772 104.214-116.052 287.312-68.991 463.006 37.3 139.259 149.769 233.144 217.839 278.93-.044-.445-.114-.877-.156-1.322-1.634-17.222-1.543-32.852-.258-47.093 7.943-88.021 63.26-120.958 63.26-120.958-5.178 56.095-5.154 110.213-.169 161.726 2.065 21.332 4.891 42.264 8.692 62.632 20.801 111.477 77.44 258.722 229.155 327.142 131.109 59.124 248.855 48.408 307.414 36.774-6.524-11.813-12.216-24.012-17.291-36.476-32.96-80.948-36.32-174.133-20.387-261.562-50.278-7.738-91.872-24.274-125.342-46.49-94.31-91.668-48.953-176.654-48.953-176.654 6.804 34.02 40.258 141.794 189.586 161.781 49.204-138.819 160.304-160.931 160.304-160.931-85.916 76.371-167.315 302.766-94.471 466.642 8.372 18.834 18.679 36.883 31.357 53.741 191.21 232.399 475.377 220.261 606.651 146.506-7.839-10.887-13.703-22.789-18.007-35.001-19.252-54.613-7.869-115.056-7.869-115.056 9.53 33.636 29.232 63.222 48.406 85.64 18.775 21.952 36.983 36.972 44.698 42.237 251.741 152.727 478.04 103.822 590.724-12.507l12.066-12.451.162.034c9.776-10.522 18.569-22.137 26.359-34.796 40.209-65.336 53.821-158.037 38.213-267.893 0 0 91.976 124.274 37.885 257.283-3.03 7.226-6.35 14.205-9.809 21.059-6.592 13.06-13.945 25.444-22.077 37.085 198.042 27.569 428.352-14.11 534.662-210.122 74.869-138.035 69.778-249.387 55.985-312.539-4.182 5.488-8.44 10.89-12.851 16.101-6.811 8.047-13.881 15.593-21.083 22.873-17.383 17.574-35.818 33.023-55.31 46.062-83.497 52.094-208.278-9.525-208.278-9.525 117.111 9.712 193.319-49.067 236.56-100.141 2.99-3.533 5.773-7.317 8.643-10.997 12.692-16.272 24.34-33.78 34.591-52.53.275-.504.523-1.029.796-1.534 3.665-6.768 7.16-13.679 10.494-20.707.77-1.617 1.491-3.264 2.242-4.892 2.84-6.177 5.572-12.43 8.157-18.776.669-1.639 1.328-3.283 1.979-4.932 2.713-6.881 5.284-13.845 7.693-20.893.336-.981.693-1.953 1.023-2.936 8.336-24.912 14.74-50.751 19.121-76.953.224-1.344.424-2.69.638-4.036 1.15-7.236 2.134-14.495 2.97-21.769.196-1.713.402-3.426.58-5.139.777-7.432 1.377-14.875 1.822-22.316.073-1.217.187-2.433.249-3.649.458-8.763.703-17.521.688-26.253 0-.285-.018-.567-.02-.853-.027-7.996-.299-15.963-.73-23.899z" fill="url(#a)"/><path d="m3540.575 2556.06c-12.97-10.047-44.778-31.232-76.815-48.112.252 8.075.399 16.081.386 23.968.002 177.307-111.599 237.259-111.599 237.259.893-2.301 89.945-236.351.224-454.248-81.826-198.713-216.921-258.418-316.177-248.129 0 0 96.872-82.55 238.486 12.868 7.526 6.435 14.964 13.323 22.314 20.589 61.695-26.943 114.292-86.669 125.128-99.539 0 0 4.489 92.33-83.565 146.782 29.444 38.258 56.43 84.654 79.394 140.425 20.407 49.559 32.683 99.387 39.325 147.457 34.623 14.291 72.084 36.833 97.531 53.851 59.414-82.369 111.394-259.995 69.637-430.502-39.396-160.852-152.157-284.871-319.06-352.176-39.61 111.846-128.994 156.799-128.994 156.799 39.891-55.234 61.846-133.038 71.877-177.545l-.624-.217 6.326-27.538c2.032-9.043 48.304-224.57-116.333-371.311-133.803-119.257-295.492-159.451-420.547-145.404l-82.699 132.507c-.544 2.835-1.13 5.635-1.751 8.402l350.567 8.448c59.214 1.426 112.275 37.644 135.179 92.27 22.903 54.628 11.538 117.858-28.955 161.089l-277.936 296.734c80.977 96.646 129.893 228.707 137.511 375.196 175.187 84.516 271.65 213.65 286.803 384.07 8.811 99.172-10.597 208.101-57.701 323.899 16.899 64.45 22.441 162.028 8.643 234.443 137.063-12.321 337.347-83.496 399.426-247.556 55.053-145.507 37.404-281.361-46-354.777z" fill="url(#b)"/><path d="m1452.595 3070.42 565.645-1280.143-625.187-37.214 610.302-1280.144 1027.091-111.64-654.957 1049.42 617.744 14.885z" fill="url(#c)"/><path d="m1452.567 3139.422c-13.156 0-26.395-3.75-38.039-11.452-28.063-18.562-38.646-54.66-25.047-85.438l525.496-1189.28-526.024-31.311c-22.916-1.364-43.652-14.035-55.321-33.804-11.668-19.769-12.742-44.046-2.863-64.768l610.301-1280.143c10.296-21.596 31.043-36.317 54.828-38.902l1027.092-111.641c26.271-2.857 51.851 9.538 65.896 31.912 14.045 22.375 14.082 50.805.095 73.217l-590.924 946.821 496.838 11.972c27.188.655 51.456 17.22 61.972 42.301s5.317 54-13.274 73.848l-1540.638 1644.835c-13.458 14.368-31.837 21.833-50.387 21.833zm46.862-1449.149 522.911 31.125c22.564 1.344 43.04 13.654 54.81 32.952s13.34 43.138 4.204 63.813l-401.53 908.725 1157.735-1236.035-463.731-11.174c-24.771-.597-47.319-14.43-59.076-36.241s-10.916-48.251 2.203-69.271l579.768-928.946-847.646 92.136-549.646 1152.917z" fill="#36087a"/><path d="m763.435 1862.105s-70.576-6.425-117.044 64.754c77.643-21.413 320.121-1.854 421.497 128.24 2.874-53.12-99.568-162.494-99.568-162.494l-204.884-30.499z" fill="#fff" opacity=".4"/><path d="m830.416 2506.308s-117.595 72.699-156.314 164.402c124.794-77.721 386.735-230.955 658.317 41.806-52.833-111.646-161.179-222.399-301.056-238.929s-200.947 32.721-200.947 32.721z" fill="#fff" opacity=".4"/><path d="m223.643 2687.552 26.335-14.797s-22.395-238.137 131.269-407.176c-17.73-25.226-78.802-82.357-78.802-82.357s-149.723 313.237-78.802 504.331z" fill="#fff" opacity=".4"/><path d="m600.578 3061.204s75.999 368.059 479.289 325.873c1.401-42.186-42.427-131.756-42.427-131.756s-321.286 37.035-436.862-194.116z" fill="#36087a" opacity=".2"/><path d="m1141.683 3176.779c-31.521 148.767 120.546 354.573 367.6 401.871s288.002-47.264 288.002-47.264l-63.912-131.931s-98.945 71.516-263.889 45.249-297.991-155.091-327.801-267.926z" fill="#36087a" opacity=".2"/><path d="m274.864 2531.919c-31.737 105.336 34.259 302.971 195.803 404.528l64.108-137.644s-192.929-42.298-259.911-266.883z" fill="#36087a" opacity=".2"/><path d="m1247.589 2154.992c2.08-1.673 4.139-3.357 6.25-5.009-2.548-.624-5.111-1.334-7.669-2.017.501 2.33 1.012 4.656 1.419 7.026z" fill="#fe52a7"/><path d="m3440.066 2472.078 20.612 111.848s184.386 46.177 137.339 293.297c47.59-81.318 79.111-215.281 21.98-286.202-57.131-70.922-179.93-118.942-179.93-118.942z" fill="#fff" opacity=".4"/><path d="m3216.794 2089.316s-121.368-50.292-180.2-22.519c161.813 75.054 357.589 231.158 315.953 702.378 87.9-108.946 95.435-380.412 11.362-514.375-84.074-133.963-147.115-165.484-147.115-165.484z" fill="#fff" opacity=".4"/><g fill="#36087a"><path d="m2471.462 3297.28s-26.541 315.279-395.908 305.648c-359.193-9.365-340.111-219.351-340.111-219.351s76.055 111.692 271.089 129.422 394.008-83.727 464.93-215.72z" opacity=".2"/><path d="m3036.864 3158.392s-43.341 283.686-312.883 339.258c-289.108 59.606-280.1 25.2-280.1 25.2s90.622-172.997 98.384-236.684c39.519 98.173 338.965 193.343 494.599-127.774z" opacity=".2"/><path d="m924.978 2998.819s-59.009-31.413-57.085-132.924c49.205 70.552 167.406 142.774 295.459 24.572-49.25 66.981-83.453 170.737-83.453 170.737z" opacity=".2"/><path d="m3572.715 2752.564s9.77 320.827-288.652 388.938l-128.997 52.351v-189.124s334.907 59.101 417.649-252.165z" opacity=".2"/><path d="m3363.909 2086.689 58.613-85.974s-32.365 201.283 51.691 278.905c84.055 77.621 131.336-53.714 131.336-53.714s-9.945 136.175-77.265 246.172c-35.685 8.62-88.218 0-88.218 0l-149.723-335.481 73.566-49.907z" opacity=".2"/><path d="m3095.965 2690.836s5.233 386.343-300.77 361.282c137.913-61.836 261.369-127.504 300.77-361.282z" opacity=".2"/><path d="m968.319 1892.604s53.914 65.06 51.04 118.18c0 0 151.218 137.182 13.464 329.246-86.674 120.846-218.167 61.866-316.231 222.129-26.045 42.563 196.566-109.042 346.289-86.25 55.161-148.875 260.046-327.943 260.046-327.943z" opacity=".2"/><path d="m361.546 1862.105c-31.521 124.769-31.521 316.52 133.963 439.976s319-27.849 319-27.849-445.083 17.342-452.963-412.127z" opacity=".2"/></g><path d="m2416.061 2406.621c57.601-49.922 103.223-152.651 99.719-249.696l-281.164 300.18c62.453 11.984 129.48-5.453 181.445-50.484z" fill="url(#d)"/><path d="m1743.5 2025.235 36.239-82.014-99.733-5.936c-2.099 29.805-.738 57.787 3.405 81.437 20.415 1.193 40.451 3.378 60.089 6.513z" fill="url(#e)"/><path d="m1783.671 3238.549c-67.937-20.54-130.91-59.87-179.477-108.383l-48.621 51.909c56.334 55.831 128.605 100.487 207.57 124.364 42.375 12.805 84.727 19.108 126.367 19.108 271.423-27.938 271.423-198.943 271.423-198.943-140.696 154.102-296.757 136.295-377.263 111.947z" fill="#36087a"/><path d="m2515.78 2156.925c3.505 97.045-42.117 199.774-99.719 249.696-51.964 45.031-118.991 62.469-181.445 50.484l-108.705 116.056c1.174 119.26-43.341 196.721-83.635 242.255-55.207 62.383-133.462 98.837-214.704 100.006 0 0 125.768 64.069 267.819-53.007 14.798-16.721 28.02-34.72 39.665-53.812 39.675 82.443 104.234 141.085 187.383 168.244 165.486 52.834 225.501-88.744 225.501-88.744-49.921 41.171-132.671 52.745-205.931 28.819-81.968-26.775-141.852-93.004-170.019-187.23 21.81-63.429 29.414-134.629 21.805-209.695 25.921 7.823 52.675 11.836 79.5 11.836 67.182 0 134.602-24.287 189.217-71.622 34.796-30.157 66.38-75.36 89.003-127.894 35.666-100.76 13.947-165.797-10.337-202.508l-25.397 27.115z" fill="#36087a"/><path d="m1160.547 2469.101c-12.978-5.308-25.805-9.76-38.423-13.521 36.351-131.489 193.502-342.609 474.185-365.063 41.608-3.339 80.754-2.477 117.451 2.024l29.74-67.307c-19.637-3.136-39.674-5.32-60.089-6.513-4.143-23.65-5.505-51.631-3.405-81.437l-62.647-3.729c-2.102 30.236-1.171 59.005 2.278 84.57-9.598.371-19.253.913-28.985 1.693-90.112 7.21-169.645 31.832-238.317 67.119-51.048 7.667-121.589-10.48-188.632-50.349-1.651-1.015-3.194-2.098-4.891-3.084l-1.342-.785-.008.013c-75.766-46.745-146.042-121.095-177.073-217.007-28.204-87.163-17.572-183.198 29.167-263.481 61.206-103.277 126.217-147.191 126.217-147.191s-124.113 0-187.508 111.511c-56.866 97.679-69.753 214.677-35.357 320.994.624 1.929 1.351 3.813 2.005 5.73-58.571-20.584-115.77-21.617-160.028-16.8-108.494 18.541-108.494 100.368-108.494 100.368 20.6-22.781 188.218-82.732 315.355 12.033 41.587 63.689 98.601 116.392 159.994 154.341l-.331.56 1.774 1.035c48.319 28.075 65.216 70.335 51.653 128.931-63.681 70.744-104.952 149.195-122.446 217.461-13.694-1.632-26.936-2.615-39.479-2.943-56.783-1.468-111.227 8.062-161.203 24.857-180.209 76.665-177.606 207.577-177.606 207.577 59.267-83.103 193.914-165.253 336.953-161.536 127.623 3.34 238.749 73.653 321.364 203.341 0 0 0-158.271-171.872-243.415zm93.292-319.118c-2.111 1.652-4.169 3.336-6.25 5.009-.407-2.37-.918-4.696-1.419-7.026 2.558.682 5.121 1.392 7.669 2.017z" fill="#36087a"/><g fill="#fff" opacity=".3"><path d="m3655.457 2026.275c-105.069-265.299-351.981-354.608-351.981-354.608s65.669-354.608-220.645-462.303c-144.077-54.194-267.517-76.455-354.622-85.204l-63.679 102.031c111.344-24.183 268.707-9.231 405.168 88.241 147.096 105.069 198.477 344.906 107.092 548.918 71.525-83.988 94.72-88.943 94.72-88.943s189.57 23.342 302.519 267.627-39.401 470.184-39.401 470.184l36.774 15.76s189.124-236.405 84.055-501.704z"/><path d="m1550.642 1060.538 56.03-117.527c-121.879-8.738-262.033 18.32-362.547 148.806l152.662 19.081s62.607-37.922 153.855-50.361z"/></g><path d="m2964.629 1963.708c-48.448-54.155-74.819-116.68-85.001-195.239l-54.191 57.856c.527 33.415 5.238 71.653 15.736 115.894 36.774 154.976 195.421 124.577 195.421 124.577l96.848-32.981s-97.891 9.169-168.813-70.108z" fill="#36087a"/><g fill="#fff" opacity=".3"><path d="m1419.285 1336.068 44.358-93.044c-209.357-146.458-601.944-274.476-918.226 229.521-170.736 109.813-312.463 327.493-278.292 561.609l51.317 11.566s-1.551-224.331 127.159-358.294c128.709-133.963 283.986-172.658 384.964-178.264-53.997-23.993-128.787-59.557-128.787-59.557s45.896-108.906 190.365-179.828c144.47-70.922 383.502-31.521 467.557 15.76 27.917 15.704 46.698 32.634 59.584 50.53z"/><path d="m2885.827 2238.312c-6.771-102.55-27.507-243.696-115.847-352.78l-87.207 93.105c84.085 93.316 96.46 220.729 100.611 286.941 5.254 83.783-30.007 263.403-138.46 356.151 99.059-54.35 180.634-84.227 237.036-237.399 82.668 28.072 282.742 154.833 231.299 410.599 35.24-56.813 150.815-365.594-227.433-556.617z"/></g><path d="m1691.153 2151.761 38.781-87.765c-24.757-3.832-50.177-5.775-76.132-5.563-244.193 1.99-448.813 207.146-448.813 207.146l-31.785 78.53s144.47-167.24 459.676-192.629c19.67-1.584 39.128-1.445 58.273.282z" fill="#fff" opacity=".3"/><path d="m2629.598 1282.162 3.441.083c.622-2.767 1.207-5.567 1.751-8.402z" fill="#36087a"/><path d="m3724.339 2034.36c-46.042-188.016-173.602-333.691-361.811-415.171 6.619-93.365-4.186-273.313-156.333-408.922-122.006-108.746-277.87-169.894-422.761-174.592l-65.945 105.661c125.055-14.047 286.744 26.147 420.547 145.404 164.636 146.741 118.364 362.269 116.333 371.311l-6.326 27.538.624.217c-10.03 44.506-31.985 122.31-71.877 177.545 0 0 89.384-44.952 128.994-156.799 166.903 67.305 279.664 191.323 319.06 352.176 41.757 170.507-10.223 348.133-69.637 430.502-25.447-17.018-62.907-39.56-97.531-53.851-6.642-48.07-18.918-97.898-39.325-147.457-22.964-55.77-49.951-102.166-79.394-140.425 88.054-54.452 83.565-146.782 83.565-146.782-10.837 12.87-63.434 72.595-125.128 99.539-7.35-7.266-14.788-14.154-22.314-20.589-141.614-95.418-238.486-12.868-238.486-12.868 99.256-10.289 234.351 49.417 316.177 248.129 89.721 217.897.669 451.947-.224 454.248 0 0 111.601-59.951 111.599-237.259.012-7.886-.134-15.893-.386-23.968 32.037 16.88 63.845 38.065 76.815 48.112 83.404 73.416 101.053 209.27 46 354.777-62.079 164.06-262.363 235.235-399.426 247.556 13.798-72.415 8.256-169.993-8.643-234.443 47.104-115.798 66.512-224.727 57.701-323.899-15.153-170.42-111.616-299.554-286.803-384.07-7.619-146.488-56.534-278.55-137.511-375.196l-77.063 82.275c6.769 8.619 13.304 17.685 19.563 27.238 53.122 81.08 81.587 186.742 80.164 297.53-.282 21.914-1.736 43.405-4.276 64.349-17.466 144.076-86.71 261.993-185.356 309.552 0 0 135.834 0 213.102-158.534 15.5-39.921 26.723-83.467 33.189-129.673 1.893-13.532 3.244-27.357 4.307-41.32 62.597 26.639 184.928 97.53 225.051 255.362l.002.003h-.002c1.977 7.775 3.658 15.674 5.171 23.633.474 2.489.857 5.015 1.286 7.522.958 5.601 1.832 11.23 2.569 16.901.366 2.822.7 5.653 1.013 8.492.631 5.742 1.14 11.513 1.551 17.306.177 2.497.389 4.986.526 7.493.431 7.936.703 15.903.73 23.899.002.286.02.568.02.853.015 8.732-.23 17.49-.688 26.253-.062 1.216-.176 2.433-.249 3.649-.444 7.441-1.044 14.884-1.822 22.316-.178 1.714-.384 3.426-.58 5.139-.836 7.274-1.821 14.533-2.97 21.769-.214 1.345-.414 2.692-.638 4.036-4.381 26.202-10.785 52.041-19.121 76.953-.33.983-.687 1.955-1.023 2.936-2.409 7.048-4.98 14.012-7.693 20.893-.65 1.649-1.31 3.293-1.979 4.932-2.585 6.346-5.317 12.6-8.157 18.776-.75 1.628-1.472 3.275-2.242 4.892-3.334 7.028-6.829 13.939-10.494 20.707-.273.505-.521 1.03-.796 1.534-10.251 18.75-21.899 36.257-34.591 52.53-2.87 3.68-5.653 7.464-8.643 10.997-43.241 51.075-119.449 109.853-236.56 100.141 0 0 124.781 61.62 208.278 9.525 19.493-13.038 37.928-28.488 55.31-46.062 7.201-7.28 14.271-14.826 21.083-22.873 4.411-5.211 8.669-10.614 12.851-16.101 13.793 63.152 18.884 174.505-55.985 312.539-106.31 196.011-336.619 237.691-534.662 210.122 8.132-11.641 15.485-24.025 22.077-37.085 3.458-6.854 6.778-13.833 9.809-21.059 54.092-133.009-37.885-257.283-37.885-257.283 15.609 109.857 1.996 202.557-38.213 267.893-7.79 12.659-16.584 24.273-26.359 34.796l-.162-.034-12.066 12.451c-112.684 116.329-338.983 165.234-590.724 12.507-7.715-5.264-25.923-20.285-44.698-42.237-19.174-22.418-38.876-52.005-48.406-85.64 0 0-11.382 60.443 7.869 115.056 4.304 12.212 10.168 24.113 18.007 35.001-131.274 73.755-415.44 85.893-606.651-146.506-12.678-16.858-22.985-34.907-31.357-53.741-72.844-163.876 8.555-390.272 94.471-466.642 0 0-111.1 22.113-160.304 160.931-149.328-19.987-182.781-127.761-189.586-161.781 0 0-45.357 84.986 48.953 176.654 33.471 22.216 75.065 38.752 125.342 46.49-15.933 87.43-12.573 180.614 20.387 261.562 5.075 12.464 10.767 24.663 17.291 36.476-58.559 11.634-176.304 22.35-307.414-36.774-151.716-68.42-208.354-215.665-229.155-327.142-3.801-20.368-6.627-41.299-8.692-62.632-4.984-51.514-5.009-105.631.169-161.726 0 0-55.317 32.937-63.26 120.958-1.285 14.241-1.376 29.871.258 47.093.042.445.112.877.156 1.322-68.07-45.786-180.539-139.671-217.839-278.93-47.061-175.693 9.22-358.792 68.991-463.006 7.896 9.708 17.319 20.254 28.169 31.097 23.103 23.088 52.835 47.513 89.39 68.102 25.464 14.343 56.419 27.949 92.749 37.377 30.46 7.904 64.7 12.871 102.655 12.871 123.451-9.25 178.465-101.453 178.465-101.453-230.526 94.589-368.491-6.366-428.555-71.958-22.323-24.378-33.889-43.868-35.441-46.622-22.225-48.154-54.143-162.008-33.87-285.998 24.367-149.046 113.982-262.704 266.352-337.824l2.078-1.025c7.105-3.319 27.013-9.917 54.12-16.105 50.978-11.639 127.28-21.757 191.373-5.537 0 0-49.256-68.297-171.132-59.631-14.072 1-29.057 2.969-45.102 6.246 57.851-170.12 231.468-318.505 517.327-299.022 179.629 12.249 274.455 58.661 324.383 102.212l41.299-86.628c-64.3-50.207-137.108-81.501-202.322-97.364 59.493-49.761 167.715-100.712 295.963-99.055l47.676-100.003c-212.785-20.155-397 81.73-464.666 179.469l-1.361 1.966c-11.152-1.063-22.462-2.015-34.003-2.801-357.213-24.391-572.532 184.98-631.198 401.157-205.115 112.816-272.189 276.945-291.886 397.414-19.254 117.756.162 231.938 27.015 308.319-66.254 109.746-148.076 327.87-87.421 554.309 53.33 199.094 223.046 317.496 294.487 359.645 40.951 174.656 139.751 304.717 280.713 368.29 160.247 72.268 303.394 58.024 375.393 42.748 104.562 110.553 242.131 178.766 392.004 193.48 116.778 11.444 233.207-10.666 316.684-58.501 115.27 62.256 226.25 88.537 326.508 88.537 130.869-.016 243.446-44.796 323.225-112.816 116.87 19.178 235.758 14.875 338.439-12.682 145.875-39.155 257.984-124.382 324.195-246.463 14.024-25.856 25.654-51.039 35.296-75.469 169.294-5.393 435.537-91.382 520.31-315.438 60.47-159.816 48.219-314.326-29.736-419.635 71.807-116.171 115.486-314.253 71.683-493.087z" fill="#36087a"/><path d="m1736.67 3144.845c-34.281-14.872-63.755-33.903-89.086-55.33l-42.949 45.854c30.439 32.245 66.848 58.578 105.712 86.964 102.498 74.861 351.508 78.278 425.667-67.251-57.57 42.297-220.727 67.251-399.344-10.237z" fill="#36087a" opacity=".3"/></svg>