<svg viewBox="0 0 4000 4000" xmlns="http://www.w3.org/2000/svg" xmlns:xlink="http://www.w3.org/1999/xlink"><linearGradient id="a" gradientTransform="matrix(1 0 0 -1 0 4000)" gradientUnits="userSpaceOnUse" x1="1971.38" x2="2302.654" y1="3626.858" y2="1354.352"><stop offset="0" stop-color="#ffea83"/><stop offset=".083" stop-color="#ffdd35"/><stop offset="1" stop-color="#ffa800"/></linearGradient><path d="m3731.484 2104.359c0-72.011-10.326-142.863-30.69-210.589-19.964-66.397-49.178-128.548-86.83-184.724-38.171-56.954-84.064-106.376-136.404-146.892-17.126-13.256-34.877-25.493-53.143-36.644-2.007-19.299-4.825-38.596-8.444-57.786-7.874-41.748-19.583-83.231-34.804-123.296-15.252-40.147-34.119-79.109-56.079-115.8-22.349-37.345-48.056-72.593-76.403-104.765-55.359-62.825-119.723-113.072-191.306-149.346-41.411-20.984-84.668-36.941-129.201-47.693-16.208-29.306-34.995-57.078-56.185-83.021-6.893-8.439-14.049-16.672-21.437-24.709l-231.534 370.98 321.61 7.75c66.488 1.603 126.066 42.27 151.784 103.604 25.718 61.339 12.956 132.337-32.511 180.878l-1540.637 1644.835c-31.83 33.982-76.797 53.472-123.372 53.472-33.234.003-65.469-9.696-93.211-28.047-33.24-21.985-57.724-55.16-68.938-93.409-11.213-38.248-8.517-79.391 7.592-115.849l467.309-1057.595-382.31-22.756c-56.218-3.347-106.87-34.298-135.497-82.796-28.625-48.5-31.247-107.8-7.013-158.633l472.528-991.156c-28.651-3.662-57.893-5.504-87.615-5.504-131.539 0-254.441 34.248-355.416 99.04-47.116 30.233-88.836 66.778-124 108.621-22.173 26.384-41.701 54.826-58.387 85.001-44.658 12.741-88.779 31.663-131.759 56.548-71.073 41.152-136.684 97.07-195.01 166.201-51.263 60.759-94.356 128.709-128.082 201.962-25.763 55.957-45.239 113.219-58.145 170.856-22.533 14.902-44.193 31.492-64.769 49.622-46.596 41.056-87.266 89.582-120.882 144.228-67.782 110.189-103.61 239.499-103.61 373.949 0 90.351 16.048 177.944 47.697 260.347 19.419 50.561 44.226 97.863 73.994 141.163-5.969 55.812-5.758 112.354.661 168.698 10.334 90.795 35.998 177.354 76.276 257.266 39.527 78.42 91.479 147.316 154.414 204.774 64.656 59.03 137.75 103.148 217.252 131.129 41.56 14.628 84.094 24.517 127.075 29.576.18.245.36.49.542.734 12.325 19.446 25.857 38.419 40.279 56.473 41.251 51.64 90.41 96.94 146.109 134.643 55.716 37.713 116.775 67.001 181.484 87.051 66.6 20.636 135.894 31.1 205.954 31.1 90.059 0 177.544-18.288 260.025-54.356 78.13-34.166 148.363-82.736 208.749-144.358 1.288-1.314 2.566-2.63 3.843-3.954 5.758 6.003 11.644 11.906 17.651 17.703 123.612 119.276 289.438 184.964 466.933 184.964 140.784 0 274.194-41.493 385.809-119.993 45.383-31.918 86.476-69.462 122.138-111.59 20.845-24.624 39.841-50.822 56.819-78.333 43.398-5.003 86.351-14.832 128.324-29.395 80.189-27.823 153.969-71.738 219.292-130.524 63.779-57.398 116.454-126.271 156.562-204.705 40.954-80.089 67.051-166.867 77.566-257.924 5.464-47.336 6.524-94.902 3.188-141.955 30.869-44.265 56.504-92.764 76.461-144.726 31.652-82.406 47.701-170 47.701-260.347z" fill="#fe52a7"/><path d="m1372.911 3034.229 565.645-1280.144-625.186-37.213 610.301-1280.144 1027.092-111.64-654.958 1049.42 617.744 14.885z" fill="url(#a)"/><g fill="#36087a"><path d="m1372.884 3103.23c-13.156 0-26.395-3.75-38.039-11.452-28.063-18.562-38.646-54.66-25.047-85.438l525.496-1189.28-526.024-31.311c-22.916-1.364-43.652-14.035-55.321-33.804-11.668-19.769-12.742-44.046-2.863-64.768l610.301-1280.145c10.296-21.596 31.043-36.317 54.828-38.902l1027.092-111.641c26.271-2.857 51.851 9.538 65.896 31.912 14.045 22.375 14.082 50.805.095 73.217l-590.924 946.821 496.838 11.972c27.188.655 51.456 17.22 61.972 42.301s5.317 54-13.274 73.848l-1540.638 1644.835c-13.458 14.368-31.837 21.833-50.387 21.833v.002zm46.861-1449.149 522.911 31.125c22.564 1.344 43.04 13.654 54.81 32.952s13.34 43.138 4.204 63.813l-401.53 908.725 1157.735-1236.035-463.731-11.174c-24.771-.597-47.319-14.43-59.076-36.241s-10.916-48.251 2.203-69.271l579.768-928.946-847.646 92.136-549.646 1152.917h-.002z"/><path d="m1446.714 1955.886c31.204 0 56.5-25.296 56.5-56.5 0-8.833.631-17.43 1.867-25.79l-113.052-6.729c-1.198 10.67-1.815 21.515-1.815 32.519 0 31.204 25.296 56.5 56.5 56.5z"/><path d="m2835.357 1745.053c37.082 49.301 59.221 106.995 59.221 154.333 0 31.204 25.296 56.5 56.5 56.5s56.5-25.296 56.5-56.5c0-72.038-29.857-153.047-81.915-222.258-7.195-9.566-14.692-18.737-22.454-27.524l-77.709 82.965c3.352 4.052 6.643 8.211 9.857 12.485z"/><path d="m3621.276 2104.359c0-59.829-8.547-118.588-25.403-174.646-16.38-54.477-40.262-105.338-70.98-151.172-30.693-45.796-67.408-85.39-109.123-117.68-30.677-23.747-63.475-43.088-97.924-57.78.713-63.166-9.599-128.244-30.375-190.575-25.398-76.194-66.141-147.469-117.82-206.119-44.844-50.892-96.683-91.442-154.075-120.525-49.995-25.334-102.972-41.289-157.949-47.613-17.112-43.245-40.668-82.958-70.021-118.288l-64.335 103.082c16.47 25.458 29.391 53.283 38.418 83.036 6.242 28.777 10.246 58.143 12.028 87.723l113.292 2.73c-.608-13.097-1.573-26.166-2.913-39.184 27.685 6.435 54.564 16.22 80.401 29.312 16.911 8.569 33.235 18.472 48.918 29.644 25.001 12.787 46.664 31.701 62.722 55.198 2.94 3.149 5.858 6.332 8.73 9.592 41.759 47.392 74.748 105.189 95.401 167.147 20.702 62.104 28.572 127.165 22.763 188.146l-4.371 45.875 44.06 13.504c36.839 11.291 71.789 29.611 103.88 54.452 32.098 24.846 60.502 55.542 84.425 91.236 24.444 36.471 43.499 77.114 56.635 120.798 13.68 45.495 20.616 93.307 20.616 142.106 0 61.083-10.729 119.986-31.888 175.075-20.246 52.714-48.935 99.227-85.267 138.247l-19.508 20.951 5.356 28.121c9.786 51.386 11.645 104.328 5.524 157.354-7.242 62.713-25.094 122.239-53.058 176.927-26.836 52.48-61.795 98.306-103.906 136.203-64.711 58.236-140.946 92.822-220.19 100.886 30.974-94.272 43.903-185.061 38.459-270.781-3.251-51.187-13.144-100.573-29.403-146.788-15.579-44.281-37.109-85.988-63.992-123.961-4.373-6.177-8.902-12.245-13.556-18.219 39.574-20.461 75.535-47.933 105.28-80.891 52.247-57.891 81.021-127.949 81.021-197.271 0-31.204-25.296-56.5-56.5-56.5s-56.5 25.296-56.5 56.5c0 41.301-18.435 84.473-51.907 121.562-28.771 31.877-65.925 56.368-106.584 70.623-34.909-27.828-73.677-51.508-115.439-70.295-65.515-29.473-136.514-46.219-208.202-49.369.037-12.23.066-23.68.066-31.724 0-56.804-14.369-105.984-42.184-145.871l-80.984 86.462c6.84 16.948 10.168 36.619 10.168 59.41 0 11.175-.059 29.229-.114 46.688-.054 16.734-.104 32.541-.104 41.99v60.177l60.058-3.789c73.478-4.63 147.803 8.879 214.938 39.08 39.513 17.775 75.555 40.992 106.947 68.658 2.141 2.276 4.461 4.363 6.932 6.246 20.348 18.778 38.615 39.478 54.438 61.828 43.261 61.106 67.771 132.642 72.85 212.617 5.091 80.16-9.576 166.98-43.62 258.584l-1.123-.124-15.314 41.4c-29.327 79.278-81.104 146.695-149.735 194.963-71.346 50.178-157.447 76.7-248.995 76.7-115.566 0-222.745-42.006-301.791-118.28-77.794-75.066-120.637-175.62-120.637-283.138v-235.531c41.105 2.439 78.465 7.625 111.538 15.518 43.855 10.466 80.477 25.739 108.845 45.396 51.52 35.699 76.564 86.159 76.564 154.263 0 31.204 25.296 56.5 56.5 56.5s56.5-25.296 56.5-56.5c0-104.926-43.296-190.387-125.206-247.144-68.724-47.619-164.344-74.843-284.741-81.194v-35.197l-113 120.643v242.892c0 54.446-11.008 108.08-32.719 159.412-21.245 50.231-51.573 95.657-90.142 135.016-38.958 39.755-84.1 71.015-134.173 92.911-52.25 22.849-107.676 34.434-164.739 34.434-91.567 0-179.442-26.721-254.126-77.273-35.834-24.256-67.327-53.234-93.605-86.131-26.467-33.131-47.013-69.473-61.07-108.015l-5.88-16.124c-11.544-36.802-17.51-75.209-17.51-113.875 0-67.65 18.227-134.507 52.711-193.341 15.779-26.921 6.747-61.536-20.174-77.314-26.92-15.781-61.535-6.747-77.314 20.174-44.632 76.148-68.223 162.763-68.223 250.481 0 31.644 3.087 63.143 9.109 94.063-79.946-6.882-157.049-41.625-222.261-101.162-41.488-37.878-75.938-83.695-102.393-136.182-27.591-54.741-45.205-114.336-52.352-177.133-3.025-26.554-4.061-53.078-3.12-79.43 16.15 11.494 32.905 21.964 50.242 31.321 51.709 27.904 107.315 45.468 165.274 52.201 2.215.258 4.414.383 6.591.383 28.287 0 52.708-21.204 56.052-49.984 3.601-30.995-18.606-59.042-49.602-62.643-43.666-5.074-85.604-18.33-124.65-39.401-38.106-20.564-72.816-48.18-103.167-82.079-2.14-2.39-4.444-4.542-6.869-6.48-33.696-37.732-60.494-82.127-79.69-132.107-21.158-55.088-31.885-113.992-31.885-175.077 0-90.428 23.636-176.648 68.352-249.34 21.245-34.536 46.661-64.95 75.543-90.399 19.083-16.815 39.426-31.21 60.761-43.057l116.62 116.625c50.688 50.691 116.194 78.687 184.454 78.831h.526c68.35 0 133.961-27.978 184.799-78.815 10.627-10.628 16.121-24.436 16.51-38.361-7.322-13.162-12.762-27.066-16.318-41.34-.066-.066-.126-.136-.192-.202-22.065-22.064-57.839-22.064-79.903 0-29.49 29.49-66.732 45.719-104.902 45.719-.093 0-.189 0-.283 0-38.164-.08-75.377-16.321-104.785-45.731l-125.697-125.703c7.081-51.151 21.942-102.985 44.321-154.449 25.214-57.982 59.666-113.666 99.629-161.033 40.017-47.431 85.803-86.764 132.405-113.747 28.053-16.243 56.125-28.037 83.949-35.313v139.885c0 31.204 25.296 56.5 56.5 56.5s56.5-25.296 56.5-56.5v-196.514c10.724-33.589 26.63-64.343 47.354-91.508 21.429-28.088 48.046-52.438 79.113-72.373 53.109-34.078 117.682-54.513 188.526-59.919l54.46-114.234c-5.313-.145-10.647-.224-16.005-.224-107.593 0-207.184 27.412-288.005 79.272-75.35 48.349-131.272 116.105-163.422 197.487-52.245 7.378-104.419 26.022-155.59 55.65-58.578 33.917-113.134 80.572-162.15 138.669-90.002 106.675-150.649 240.239-169.255 371.062-33.599 17.092-65.316 38.715-94.625 64.541-37.299 32.865-69.963 71.885-97.085 115.976-55.676 90.508-85.104 197.202-85.104 308.547 0 74.989 13.255 147.524 39.398 215.592 21.729 56.576 51.4 107.697 88.377 152.338-11.328 61.769-13.428 124.927-6.226 188.152 8.662 76.101 30.101 148.507 63.72 215.209 32.665 64.808 75.431 121.592 127.11 168.773 52.208 47.664 110.928 83.183 174.531 105.568 52.533 18.489 106.49 27.317 160.966 26.389 6.665 14.358 14.018 28.436 22.066 42.169 1.667 2.845 3.546 5.488 5.602 7.925 10.682 17.28 22.472 34.019 35.347 50.137 33.393 41.802 73.28 78.536 118.552 109.181 45.538 30.824 95.486 54.775 148.457 71.188 54.627 16.926 111.491 25.508 169.012 25.508 72.741 0 143.399-14.77 210.013-43.899 63.403-27.726 120.467-67.21 169.607-117.355 37.897-38.673 69.488-82.042 94.268-129.351 25.845 52.291 60.432 99.512 103.056 140.641 100.221 96.706 235.265 149.965 380.256 149.965 114.94 0 223.521-33.636 314.001-97.271 75.849-53.345 135.521-124.98 174.362-208.854 55.422 1.046 110.351-7.74 163.812-26.29 64.376-22.336 123.829-57.791 176.708-105.379 52.406-47.163 95.783-103.939 128.925-168.752 34.136-66.757 55.905-139.231 64.702-215.413 6.341-54.936 5.615-109.875-2.138-163.714 37.39-44.892 67.36-96.374 89.265-153.403 26.145-68.068 39.4-140.604 39.4-215.591z"/><path d="m980.267 2230.384c0 31.204 25.296 56.5 56.5 56.5 102.515 0 208.419 49.988 290.559 137.148 36.033 38.236 65.42 81.492 87.183 127.376l87.12-197.167c-18.601 12.011-36.109 24.965-52.416 38.801-100.715-130.948-252.498-219.158-412.446-219.158-31.204 0-56.5 25.296-56.5 56.5z"/></g></svg>