<?xml version="1.0" encoding="UTF-8"?>
<svg id="Layer_1" data-name="Layer 1" xmlns="http://www.w3.org/2000/svg" xmlns:xlink="http://www.w3.org/1999/xlink" viewBox="0 0 256 256">
  <defs>
    <style>
      .cls-1 {
        fill: url(#linear-gradient);
      }
    </style>
    <linearGradient id="linear-gradient" x1="-101.884" y1="175.742" x2="234.759" y2="101.957" gradientUnits="userSpaceOnUse">
      <stop offset="0" stop-color="#ffea83"/>
      <stop offset=".083" stop-color="#ffdd35"/>
      <stop offset="1" stop-color="#ffa800"/>
    </linearGradient>
  </defs>
  <path class="cls-1" d="M59.45,22.823c-16.417,12.521-23.989,34.294-16.705,55.31-11.127,2.853-20.005,8.387-27.63,17.357-13.39,15.753-14.727,38.731-4.186,56.422,9.283,15.581,27.157,25.578,45.052,23.863,8.772-.841,11.951-2.327,16.092-3.87,2.753-1.026,5.419-2.272,7.939-3.782,0,0,32.816-19.445,33.23-19.869,1.724-1.769-20.773-15.1-25.208-12.48-5.599,3.308-15.326,8.219-23.224,12.288-10.555,5.438-23.027,2.703-30.299-5.825-7.407-8.686-7.349-21.876-.74-30.426,7.323-9.474,20.025-12.748,30.529-6.963l113.853,63.873c11.517,6.531,13.985,21.43,7.878,32.432-6.068,10.93-19.442,15.07-31.722,10.092-13.341-5.408-9.671-20.2-24.417-21.896-5.978-.688-12.859,2.474-15.395,8.285-5.022,11.51-12.922,14.634-12.922,14.634-17.3,6.753-27.093-.218-32.525-11.596-6.179-12.94-13.757-10.627-27.384-10.361-.26,25.571,28.643,51.926,55.054,49.163,12.086-1.265,22.985-7.21,31.68-16.784,19.016,19.643,47.856,21.046,68.673,3.713,15.676-13.053,20.822-33.689,14.804-53.6,30.741-7.515,46.651-39.122,34.377-67.948-11.143-26.168-43.18-37.37-68.657-24-13.003,6.824-24.58,14.302-37.474,22.051,6.575,4.401,12.145,7.338,18.185,10.585,10.397,5.59,18.153-3.582,31.777-10.714,9.937-5.202,22.065-2.361,29.218,5.93,7.113,8.244,8.116,21,.734,30.937-5.489,7.389-17.927,13.05-27.882,7.531l-113.322-62.857c-9.739-5.418-15.162-14.938-13.678-25.66,1.469-10.618,10.214-19.41,20.979-20.741,10.692-1.322,21.206,4.374,25.78,14.697,3.875,8.744,17.065,10.312,21.545,7.339,4.509-2.992,12.717-25.897,35.212-22.523,7.352,1.103,13.841,7.056,16.967,14.271,4.939,11.401,15.621,9.839,26.939,8.827.114-21.865-14.785-38.001-35.009-46.415-10.947-4.554-23.311-1.714-24.908-1.465-8.394,1.305-22.121,10.018-26.506,15.606-3.152-1.828-5.468-4.267-8.495-6.485-17.203-12.601-41.121-11.976-58.207,1.055Z"/>
</svg>